<svg width="117" height="80" viewBox="0 0 117 80" fill="none" xmlns="http://www.w3.org/2000/svg">
<path d="M66.4863 8.19055C67.5103 8.0384 68.469 8.69175 68.7188 9.67395L68.7588 9.87512L71.2197 26.4161L90.8516 35.2072L92.6943 36.0079H92.6953L93 36.1515C94.4031 36.8535 95.4946 38.0573 96.0498 39.5294L96.1611 39.8497L96.1621 39.8546L105.476 69.5714L105.527 69.7687C105.731 70.7617 105.153 71.7674 104.165 72.0773C103.177 72.3868 102.129 71.8909 101.729 70.9591L101.659 70.7667L92.7969 42.4913L87.3896 47.8536L78.8281 70.4572L78.7451 70.6456C78.292 71.552 77.2171 71.9858 76.249 71.6193C75.2161 71.228 74.6956 70.0731 75.0869 69.0402L83.0996 47.8878L67.4111 41.8253L60.2256 53.4259L58.5254 52.3722L56.8252 51.3195L67.3623 34.3087C67.3755 34.2783 67.3905 34.2482 67.4014 34.2169L67.4453 34.0607L67.6113 33.2843L67.6123 33.2804L67.6885 32.8741C67.7541 32.4653 67.7871 32.0504 67.7871 31.629V31.3663L67.7783 30.9474C67.7622 30.5296 67.7242 30.1113 67.6641 29.6935V29.6925L64.8027 10.463L64.7822 10.2599C64.7351 9.24734 65.4621 8.34298 66.4863 8.19055ZM60.2256 53.4259C59.6438 54.3646 58.4115 54.6539 57.4727 54.0724C56.5338 53.4908 56.2438 52.2584 56.8252 51.3195L60.2256 53.4259ZM71.7871 31.3527V31.629C71.7871 32.4699 71.6986 33.301 71.5225 34.1193L71.5234 34.1202L71.3564 34.9005L71.3555 34.9044C71.2867 35.2229 71.1889 35.5348 71.0635 35.8351L70.9287 36.131L70.834 36.3019L69.5547 38.3654L85.1855 44.4054L90.3037 39.3302L89.2363 38.8663L89.2168 38.8575L71.7803 31.049C71.7825 31.1499 71.7868 31.2516 71.7871 31.3527ZM55.2207 24.8556C59.0782 24.8558 62.2136 27.9813 62.2139 31.839C62.2139 35.6992 59.0827 38.8249 55.2178 38.8253C51.3567 38.8253 48.2207 35.7004 48.2207 31.839C48.2209 27.9794 51.3582 24.8556 55.2207 24.8556ZM55.2207 28.8556C53.5569 28.8556 52.2209 30.199 52.2207 31.839C52.2207 33.4843 53.5589 34.8253 55.2178 34.8253C56.8788 34.8249 58.2139 33.4849 58.2139 31.839C58.2136 30.1973 56.876 28.8558 55.2207 28.8556Z" fill="#409BC4"/>
<path d="M81.0678 59.661H100.22" stroke="#409BC4" stroke-width="6"/>
<path d="M21.1084 26.0909C23.8992 25.963 26.5217 25.8663 28.5488 26.5352C29.6477 26.8979 30.6392 27.499 31.4268 28.4532C32.1974 29.3871 32.6711 30.536 32.9541 31.837L29.0459 32.6875C28.8529 31.8004 28.5898 31.2995 28.3418 30.9991C28.1108 30.7192 27.8011 30.5008 27.2959 30.334C26.1482 29.9552 24.4158 29.9486 21.5498 30.0752C9.39015 33.9466 3.98215 41.4945 4 48.4708C4.01799 55.4534 9.47161 63.0373 21.5303 66.9922C24.0832 67.0326 25.6092 66.8457 26.6934 66.462C27.7292 66.0953 28.5091 65.4983 29.4727 64.3584L32.5273 66.9415C31.2775 68.4199 29.945 69.554 28.0283 70.2325C26.2001 70.8796 24.006 71.0506 21.1562 70.9883L20.8652 70.9815L20.5889 70.8936C7.3286 66.6424 0.0242255 57.8467 -1.06996e-06 48.4815C-0.0241602 39.1029 7.25237 30.3452 20.6035 26.1797L20.8506 26.1026L21.1084 26.0909Z" fill="#B0D029"/>
<path d="M51.3106 48.1885C51.7295 48.0032 52.2668 47.9203 52.8359 48.0987C53.4156 48.2804 53.7686 48.6539 53.9473 48.8877C54.2787 49.3216 54.4259 49.8221 54.4981 50.0987C54.6667 50.7454 54.7664 51.6031 54.834 52.4903C54.973 54.3148 55.0085 56.7794 54.9981 59.2119C54.9876 61.6585 54.9299 64.1261 54.875 65.9785C54.8475 66.9056 54.8208 67.6809 54.8008 68.2246C54.7908 68.4961 54.7831 68.71 54.7773 68.8565C54.7745 68.9295 54.7721 68.9862 54.7705 69.0244C54.7697 69.0435 54.769 69.0585 54.7686 69.0684C54.7684 69.0733 54.7677 69.0775 54.7676 69.0801V69.084L50.7715 68.916V68.9033C50.7719 68.8942 50.7727 68.8797 50.7734 68.8614C50.7749 68.8248 50.7775 68.7704 50.7803 68.6992C50.7859 68.5562 50.7939 68.3451 50.8037 68.0772C50.8234 67.5414 50.8498 66.7763 50.877 65.8604C50.9313 64.0262 50.9878 61.5946 50.9981 59.1944C51.0047 57.6362 50.9913 56.1128 50.9473 54.7832C49.7751 56.4866 48.3862 58.571 46.9346 60.7012C45.3952 62.9601 43.8023 65.2424 42.4463 66.9688C41.7729 67.8261 41.1162 68.6005 40.5254 69.1768C40.2326 69.4623 39.9061 69.7475 39.5625 69.9746C39.2782 70.1625 38.7002 70.5049 37.9609 70.5049C37.0021 70.5048 36.3543 69.9578 36.0127 69.5088C35.6959 69.0924 35.5243 68.626 35.4209 68.2725C35.2079 67.5446 35.1048 66.6401 35.0518 65.7344C34.9433 63.8808 35.0171 61.4755 35.1533 59.1485C35.2906 56.8034 35.4966 54.4656 35.667 52.7188C35.7523 51.8444 35.8292 51.115 35.8848 50.6035C35.9126 50.3478 35.9346 50.1459 35.9502 50.0078C35.958 49.939 35.9646 49.8859 35.9688 49.8496C35.9708 49.8315 35.9716 49.8171 35.9727 49.8076C35.9732 49.803 35.9743 49.7994 35.9746 49.7969V49.793C35.9747 49.7927 35.9807 49.7936 37.9609 50.0254C39.9474 50.2579 39.9482 50.2578 39.9482 50.2578H39.9473V50.2598C39.947 50.2617 39.9468 50.2654 39.9463 50.2696C39.9453 50.2778 39.9443 50.2902 39.9424 50.3067C39.9385 50.3403 39.9323 50.391 39.9248 50.4571C39.9098 50.5897 39.8884 50.7857 39.8613 51.0352C39.8071 51.5343 39.7311 52.2487 39.6475 53.1065C39.4799 54.8246 39.2796 57.107 39.1465 59.3819C39.0296 61.38 38.9681 63.3188 39.0166 64.8506C39.1079 64.7372 39.2035 64.6206 39.2998 64.4981C40.5642 62.8885 42.0914 60.7059 43.6299 58.4483C45.1456 56.2242 46.694 53.8959 47.9229 52.1221C48.5407 51.2303 49.1051 50.4375 49.5723 49.833C49.8046 49.5325 50.0337 49.252 50.2461 49.0196C50.4055 48.8451 50.7274 48.5001 51.1387 48.2735L51.3106 48.1885Z" fill="#B0D029"/>
<path d="M66.5215 48C67.3407 47.9958 67.9448 48.4047 68.2725 48.6905C68.6391 49.0103 68.9243 49.4002 69.1416 49.7451C69.5834 50.4463 69.9922 51.3645 70.3662 52.336C71.1248 54.3064 71.8863 56.8959 72.5576 59.4239C73.2329 61.9667 73.8335 64.5084 74.2637 66.4102C74.4789 67.3619 74.6517 68.156 74.7715 68.7129C74.8314 68.9914 74.8785 69.2111 74.9102 69.3614C74.926 69.4365 74.9381 69.4948 74.9463 69.5342C74.9504 69.5538 74.953 69.5689 74.9551 69.5791C74.9561 69.5842 74.9574 69.5881 74.958 69.5909C74.9582 69.592 74.9579 69.5931 74.958 69.5938L74.959 69.5948C74.959 69.595 74.9586 69.5954 73 70L71.041 70.4043C71.0409 70.4039 71.0412 70.4025 71.041 70.4014C71.0406 70.3992 71.04 70.3959 71.0391 70.3916C71.0372 70.3826 71.0341 70.3689 71.0303 70.3506C71.0226 70.3137 71.0104 70.2581 70.9951 70.1856C70.9646 70.0405 70.9199 69.8263 70.8613 69.5537C70.7441 69.0085 70.573 68.2288 70.3613 67.293C69.9373 65.4185 69.3504 62.9283 68.6924 60.4502C68.0438 58.008 67.3404 55.6354 66.6738 53.8819C66.1795 55.6021 65.6929 57.8678 65.209 60.2159C64.7161 62.6078 64.2244 65.0937 63.752 66.9639C63.5181 67.8895 63.2649 68.7611 62.9883 69.4297C62.8546 69.7528 62.6704 70.1423 62.4131 70.4834C62.2228 70.7357 61.597 71.4961 60.5 71.4961C59.8754 71.4961 59.1937 71.3959 58.541 71.0664C57.8661 70.7256 57.3642 70.2109 57.0049 69.6104C56.36 68.5322 56.1345 67.0915 56.0068 65.5977L59.9932 65.2569C59.9981 65.3143 60.0037 65.3707 60.0088 65.4258C60.4119 63.7419 60.8358 61.6172 61.291 59.4082C61.7884 56.9946 62.3253 54.4816 62.8945 52.5528C63.1757 51.6 63.4936 50.6856 63.8633 49.9698C64.0461 49.6158 64.2898 49.2149 64.6162 48.8711C64.9295 48.5412 65.5089 48.0674 66.3555 48.0059L66.5215 48Z" fill="#B0D029"/>
</svg>
